<svg width="28" height="28" viewBox="0 0 28 28" fill="none" xmlns="http://www.w3.org/2000/svg">
<g clip-path="url(#clip0_9_589)">
<path d="M14 17.4999C15.933 17.4999 17.5 15.9329 17.5 13.9999C17.5 12.0669 15.933 10.4999 14 10.4999C12.067 10.4999 10.5 12.0669 10.5 13.9999C10.5 15.9329 12.067 17.4999 14 17.4999Z" stroke="#585858" stroke-width="1.15141" stroke-linecap="round" stroke-linejoin="round"/>
<path d="M22.6333 17.5C22.478 17.8519 22.4317 18.2422 22.5003 18.6207C22.5689 18.9991 22.7493 19.3483 23.0183 19.6233L23.0883 19.6933C23.3052 19.91 23.4774 20.1673 23.5948 20.4506C23.7122 20.7339 23.7726 21.0375 23.7726 21.3441C23.7726 21.6508 23.7122 21.9544 23.5948 22.2377C23.4774 22.5209 23.3052 22.7783 23.0883 22.995C22.8716 23.2119 22.6143 23.384 22.331 23.5014C22.0477 23.6189 21.7441 23.6793 21.4375 23.6793C21.1308 23.6793 20.8272 23.6189 20.5439 23.5014C20.2607 23.384 20.0033 23.2119 19.7866 22.995L19.7166 22.925C19.4417 22.656 19.0924 22.4756 18.714 22.407C18.3355 22.3383 17.9452 22.3847 17.5933 22.54C17.2482 22.6879 16.9539 22.9334 16.7467 23.2464C16.5394 23.5594 16.4281 23.9262 16.4266 24.3016V24.5C16.4266 25.1188 16.1808 25.7123 15.7432 26.1499C15.3056 26.5875 14.7121 26.8333 14.0933 26.8333C13.4745 26.8333 12.881 26.5875 12.4434 26.1499C12.0058 25.7123 11.76 25.1188 11.76 24.5V24.395C11.7509 24.0088 11.6259 23.6343 11.4012 23.3201C11.1765 23.0059 10.8625 22.7666 10.5 22.6333C10.1481 22.478 9.75774 22.4317 9.37928 22.5003C9.00081 22.5689 8.65159 22.7493 8.37663 23.0183L8.30663 23.0883C8.08992 23.3052 7.83258 23.4774 7.54932 23.5948C7.26606 23.7122 6.96243 23.7726 6.65579 23.7726C6.34916 23.7726 6.04553 23.7122 5.76227 23.5948C5.479 23.4774 5.22166 23.3052 5.00496 23.0883C4.78802 22.8716 4.61591 22.6143 4.49849 22.331C4.38106 22.0477 4.32062 21.7441 4.32062 21.4375C4.32062 21.1308 4.38106 20.8272 4.49849 20.5439C4.61591 20.2607 4.78802 20.0033 5.00496 19.7866L5.07496 19.7166C5.34392 19.4417 5.52434 19.0924 5.59297 18.714C5.66159 18.3355 5.61526 17.9452 5.45996 17.5933C5.31207 17.2482 5.06651 16.9539 4.7535 16.7467C4.4405 16.5394 4.07371 16.4281 3.69829 16.4266H3.49996C2.88112 16.4266 2.28763 16.1808 1.85004 15.7432C1.41246 15.3056 1.16663 14.7121 1.16663 14.0933C1.16663 13.4745 1.41246 12.881 1.85004 12.4434C2.28763 12.0058 2.88112 11.76 3.49996 11.76H3.60496C3.99112 11.7509 4.36563 11.6259 4.67981 11.4012C4.99399 11.1765 5.2333 10.8625 5.36663 10.5C5.52193 10.1481 5.56825 9.75774 5.49963 9.37928C5.43101 9.00081 5.25059 8.65159 4.98163 8.37663L4.91163 8.30663C4.69468 8.08992 4.52258 7.83258 4.40515 7.54932C4.28773 7.26606 4.22729 6.96243 4.22729 6.65579C4.22729 6.34916 4.28773 6.04553 4.40515 5.76227C4.52258 5.479 4.69468 5.22166 4.91163 5.00496C5.12833 4.78802 5.38567 4.61591 5.66893 4.49849C5.9522 4.38106 6.25583 4.32062 6.56246 4.32062C6.8691 4.32062 7.17273 4.38106 7.45599 4.49849C7.73925 4.61591 7.99659 4.78802 8.2133 5.00496L8.2833 5.07496C8.55825 5.34392 8.90748 5.52434 9.28594 5.59297C9.6644 5.66159 10.0547 5.61526 10.4066 5.45996H10.5C10.845 5.31207 11.1393 5.06651 11.3466 4.7535C11.5539 4.4405 11.6651 4.07371 11.6666 3.69829V3.49996C11.6666 2.88112 11.9125 2.28763 12.35 1.85004C12.7876 1.41246 13.3811 1.16663 14 1.16663C14.6188 1.16663 15.2123 1.41246 15.6499 1.85004C16.0875 2.28763 16.3333 2.88112 16.3333 3.49996V3.60496C16.3348 3.98038 16.446 4.34716 16.6533 4.66017C16.8606 4.97318 17.1549 5.21874 17.5 5.36663C17.8519 5.52193 18.2422 5.56825 18.6207 5.49963C18.9991 5.43101 19.3483 5.25059 19.6233 4.98163L19.6933 4.91163C19.91 4.69468 20.1673 4.52258 20.4506 4.40515C20.7339 4.28773 21.0375 4.22729 21.3441 4.22729C21.6508 4.22729 21.9544 4.28773 22.2377 4.40515C22.5209 4.52258 22.7783 4.69468 22.995 4.91163C23.2119 5.12833 23.384 5.38567 23.5014 5.66893C23.6189 5.9522 23.6793 6.25583 23.6793 6.56246C23.6793 6.8691 23.6189 7.17273 23.5014 7.45599C23.384 7.73925 23.2119 7.99659 22.995 8.2133L22.925 8.2833C22.656 8.55825 22.4756 8.90748 22.407 9.28594C22.3383 9.6644 22.3847 10.0547 22.54 10.4066V10.5C22.6879 10.845 22.9334 11.1393 23.2464 11.3466C23.5594 11.5539 23.9262 11.6651 24.3016 11.6666H24.5C25.1188 11.6666 25.7123 11.9125 26.1499 12.35C26.5875 12.7876 26.8333 13.3811 26.8333 14C26.8333 14.6188 26.5875 15.2123 26.1499 15.6499C25.7123 16.0875 25.1188 16.3333 24.5 16.3333H24.395C24.0196 16.3348 23.6528 16.446 23.3398 16.6533C23.0268 16.8606 22.7812 17.1549 22.6333 17.5Z" stroke="#585858" stroke-width="1.15141" stroke-linecap="round" stroke-linejoin="round"/>
</g>
<defs>
<clipPath id="clip0_9_589">
<rect width="27.6338" height="27.6338" fill="white" transform="scale(1.01325)"/>
</clipPath>
</defs>
</svg>
