<svg width="27" height="27" viewBox="0 0 27 27" fill="none" xmlns="http://www.w3.org/2000/svg">
<path d="M20.25 8.99998C20.25 7.20977 19.5388 5.49288 18.2729 4.22701C17.0071 2.96114 15.2902 2.24998 13.5 2.24998C11.7098 2.24998 9.99287 2.96114 8.727 4.22701C7.46113 5.49288 6.74997 7.20977 6.74997 8.99998C6.74997 16.875 3.37497 19.125 3.37497 19.125H23.625C23.625 19.125 20.25 16.875 20.25 8.99998Z" stroke="#585858" stroke-linecap="round" stroke-linejoin="round"/>
<path d="M15.4463 23.6248C15.2485 23.9657 14.9646 24.2488 14.623 24.4455C14.2815 24.6422 13.8942 24.7458 13.5 24.7458C13.1059 24.7458 12.7186 24.6422 12.377 24.4455C12.0355 24.2488 11.7516 23.9657 11.5538 23.6248" stroke="#585858" stroke-linecap="round" stroke-linejoin="round"/>
</svg>
